<?xml version="1.0" encoding="UTF-8"?>
<!DOCTYPE svg PUBLIC "-//W3C//DTD SVG 1.1//EN" "http://www.w3.org/Graphics/SVG/1.1/DTD/svg11.dtd">
<!-- Creator: CorelDRAW X7 -->
<svg xmlns="http://www.w3.org/2000/svg" xml:space="preserve" width="52.2372mm" height="52.2372mm" version="1.1" style="shape-rendering:geometricPrecision; text-rendering:geometricPrecision; image-rendering:optimizeQuality; fill-rule:evenodd; clip-rule:evenodd"
viewBox="0 0 2047 2047"
 xmlns:xlink="http://www.w3.org/1999/xlink">
 <defs>
  <style type="text/css">
   <![CDATA[
    .fil0 {fill:none}
    .fil1 {fill:#9D9E9E}
   ]]>
  </style>
 </defs>
 <g id="Слой_x0020_1">
  <metadata id="CorelCorpID_0Corel-Layer"/>
  <rect class="fil0" width="2047" height="2047"/>
  <path class="fil1" d="M900 1169l0 0 -23 -85 0 0 -85 -317 -166 0 0 -85 143 0 43 0 45 0 22 83 86 319 181 0 43 0 59 0 62 -232 -319 0 -23 -85 365 0 40 0 48 0 -108 402 0 0 -124 0 -43 0 -246 0zm306 53c40,0 72,32 72,71 0,40 -32,72 -72,72 -39,0 -71,-32 -71,-72 0,-39 32,-71 71,-71zm-347 0c40,0 71,32 71,71 0,40 -31,72 -71,72 -39,0 -71,-32 -71,-72 0,-39 32,-71 71,-71z"/>
 </g>
</svg>
