<?xml version="1.0" encoding="UTF-8"?>
<!DOCTYPE svg PUBLIC "-//W3C//DTD SVG 1.1//EN" "http://www.w3.org/Graphics/SVG/1.1/DTD/svg11.dtd">
<!-- Creator: CorelDRAW X7 -->
<svg xmlns="http://www.w3.org/2000/svg" xml:space="preserve" width="210.291mm" height="19.4085mm" version="1.1" style="shape-rendering:geometricPrecision; text-rendering:geometricPrecision; image-rendering:optimizeQuality; fill-rule:evenodd; clip-rule:evenodd"
viewBox="0 0 23287 2149"
 xmlns:xlink="http://www.w3.org/1999/xlink">
 <defs>
  <style type="text/css">
   <![CDATA[
    .fil0 {fill:#2B2A29;fill-rule:nonzero}
   ]]>
  </style>
 </defs>
 <g id="Слой_x0020_1">
  <metadata id="CorelCorpID_0Corel-Layer"/>
  <path class="fil0" d="M0 2014c111,74 330,135 530,135 491,0 725,-280 725,-601 0,-305 -176,-475 -527,-611 -287,-111 -413,-206 -413,-400 0,-142 107,-312 391,-312 188,0 327,59 392,99l74 -219c-90,-53 -247,-102 -457,-102 -404,0 -672,241 -672,564 0,290 210,469 549,592 281,105 392,219 392,411 0,209 -161,354 -435,354 -185,0 -358,-58 -478,-136l-71 226zm2698 -1095l-805 0 0 -657 854 0 0 -225 -1125 0 0 2078 1172 0 0 -225 -901 0 0 -749 805 0 0 -222zm441 1196l1160 0 0 -225 -889 0 0 -1853 -271 0 0 2078zm1394 0l1159 0 0 -225 -888 0 0 -1853 -271 0 0 2078zm1995 0l0 -885 694 -1193 -302 0 -300 574c-80,157 -154,293 -209,428l-6 0c-65,-145 -130,-271 -207,-428l-293 -574 -308 0 660 1196 0 882 271 0zm1662 -2115c-555,0 -962,432 -962,1092 0,629 382,1057 934,1057 531,0 965,-382 965,-1094 0,-620 -366,-1055 -937,-1055zm-9 219c447,0 663,432 663,848 0,472 -241,863 -666,863 -426,0 -666,-397 -666,-845 0,-453 222,-866 669,-866zm1292 -182l0 1224c0,648 321,888 746,888 450,0 786,-259 786,-897l0 -1215 -271 0 0 1233c0,457 -200,660 -506,660 -277,0 -484,-197 -484,-660l0 -1233 -271 0zm1998 2078l268 0 0 -900 253 0c244,9 358,117 419,404 56,259 102,435 136,496l278 0c-43,-80 -93,-280 -161,-570 -49,-216 -145,-364 -302,-419l0 -10c216,-74 389,-256 389,-527 0,-163 -62,-305 -164,-398 -126,-114 -314,-169 -601,-169 -182,0 -379,18 -515,43l0 2050zm268 -1862c47,-12 136,-22 265,-22 284,0 478,117 478,386 0,237 -182,394 -468,394l-275 0 0 -758zm3275 1862l456 0 -111 -2078 -616 0 -219 691c-71,231 -142,505 -198,746l-12 0c-46,-244 -108,-503 -176,-743l-203 -694 -626 0 -133 2078 435 0 40 -789c12,-259 25,-580 34,-860l6 0c53,271 120,567 188,814l222 801 367 0 253 -811c80,-243 167,-539 234,-804l7 0c0,302 9,604 18,854l34 795zm1764 -2115c-611,0 -1012,466 -1012,1089 0,595 364,1060 978,1060 611,0 1021,-410 1021,-1094 0,-577 -349,-1055 -987,-1055zm-9 373c323,0 499,321 499,697 0,404 -182,706 -499,706 -315,0 -506,-287 -506,-697 0,-404 185,-706 506,-706zm1335 1733c114,16 290,31 533,31 407,0 743,-86 962,-268 198,-170 343,-444 343,-842 0,-367 -136,-623 -352,-783 -197,-148 -456,-222 -854,-222 -234,0 -459,18 -632,46l0 2038zm469 -1705c40,-9 111,-19 212,-19 407,0 660,229 660,660 0,497 -280,731 -709,728 -56,0 -123,0 -163,-9l0 -1360zm2944 453l-764 0 0 -432 811 0 0 -385 -1280 0 0 2078 1323 0 0 -385 -854 0 0 -493 764 0 0 -383zm475 1261l1295 0 0 -394 -826 0 0 -1684 -469 0 0 2078z"/>
 </g>
</svg>
