<?xml version="1.0" encoding="UTF-8"?>
<!DOCTYPE svg PUBLIC "-//W3C//DTD SVG 1.1//EN" "http://www.w3.org/Graphics/SVG/1.1/DTD/svg11.dtd">
<!-- Creator: CorelDRAW X7 -->
<svg xmlns="http://www.w3.org/2000/svg" xml:space="preserve" width="52.2372mm" height="52.2372mm" version="1.1" style="shape-rendering:geometricPrecision; text-rendering:geometricPrecision; image-rendering:optimizeQuality; fill-rule:evenodd; clip-rule:evenodd"
viewBox="0 0 11654 11654"
 xmlns:xlink="http://www.w3.org/1999/xlink">
 <defs>
  <style type="text/css">
   <![CDATA[
    .fil0 {fill:none}
    .fil1 {fill:#9D9E9E}
   ]]>
  </style>
 </defs>
 <g id="Слой_x0020_1">
  <metadata id="CorelCorpID_0Corel-Layer"/>
  <rect class="fil0" width="11654" height="11654"/>
  <path class="fil1" d="M7235 6423l0 0 1021 900c154,154 154,404 0,559 -155,154 -405,154 -559,0l-900 -1021 0 0c-668,461 -1590,395 -2184,-199 -669,-669 -669,-1754 0,-2423 669,-669 1753,-669 2422,0 595,594 661,1516 200,2184zm-545 -106c479,-479 479,-1254 0,-1733 -478,-478 -1254,-478 -1732,0 -478,479 -478,1254 0,1732 478,479 1254,479 1732,1z"/>
 </g>
</svg>
